HIERARCHY
ROOT hip
{
	OFFSET 0.000000 0.000000 0.000000 
	CHANNELS 6 Xposition Yposition Zposition Xrotation Zrotation Yrotation
	JOINT abdomen
	{
		OFFSET 0.000000 3.402643 0.000000 
		CHANNELS 3 Xrotation Zrotation Yrotation
		JOINT chest
		{
			OFFSET 0.000000 8.438565 -0.680529 
			CHANNELS 3 Xrotation Zrotation Yrotation
			JOINT neck
			{
				OFFSET 0.000000 10.207942 -0.272212 
				CHANNELS 3 Xrotation Zrotation Yrotation
				JOINT head
				{
					OFFSET 0.000000 3.130431 0.000000 
					CHANNELS 3 Xrotation Zrotation Yrotation
					End Site
					{
						OFFSET 0.000000 3.130435 0.000000 
					}
				}
			}
			JOINT lCollar
			{
				OFFSET 3.470700 6.669187 -0.816635 
				CHANNELS 3 Yrotation Zrotation Xrotation
				JOINT lShldr
				{
					OFFSET 3.198488 0.000000 0.000000 
					CHANNELS 3 Zrotation Yrotation Xrotation
					JOINT lForeArm
					{
						OFFSET 10.139888 0.000000 0.000000 
						CHANNELS 3 Yrotation Zrotation Xrotation
						JOINT lHand
						{
							OFFSET 8.370511 0.000000 0.000000 
							CHANNELS 3 Zrotation Yrotation Xrotation
							End Site
							{
								OFFSET 4.083176 0.000000 0.000000 
							}
						}
					}
				}
			}
			JOINT rCollar
			{
				OFFSET -3.470700 6.669187 -0.816635 
				CHANNELS 3 Yrotation Zrotation Xrotation
				JOINT rShldr
				{
					OFFSET -3.198488 0.000000 0.000000 
					CHANNELS 3 Zrotation Yrotation Xrotation
					JOINT rForeArm
					{
						OFFSET -10.139888 0.000000 0.000000 
						CHANNELS 3 Yrotation Zrotation Xrotation
						JOINT rHand
						{
							OFFSET -8.370511 0.000000 0.000000 
							CHANNELS 3 Zrotation Yrotation Xrotation
							End Site
							{
								OFFSET -4.083176 0.000000 0.000000 
							}
						}
					}
				}
			}
		}
	}
	JOINT lThigh
	{
		OFFSET 5.308129 -1.633274 1.361059 
		CHANNELS 3 Xrotation Zrotation Yrotation
		JOINT lShin
		{
			OFFSET -2.041588 -20.007561 0.000000 
			CHANNELS 3 Xrotation Zrotation Yrotation
			JOINT lFoot
			{
				OFFSET 0.000000 -19.190928 -1.224953 
				CHANNELS 3 Xrotation Yrotation Zrotation
				End Site
				{
					OFFSET 0.000000 -2.449906 4.627600 
				}
			}
		}
	}
	JOINT rThigh
	{
		OFFSET -5.308129 -1.633274 1.361059 
		CHANNELS 3 Xrotation Zrotation Yrotation
		JOINT rShin
		{
			OFFSET 2.041588 -20.007561 0.000000 
			CHANNELS 3 Xrotation Zrotation Yrotation
			JOINT rFoot
			{
				OFFSET 0.000000 -19.190928 -1.224953 
				CHANNELS 3 Xrotation Yrotation Zrotation
				End Site
				{
					OFFSET 0.000000 -2.449906 4.627600 
				}
			}
		}
	}
}
MOTION
Frames: 16
Frame Time: 0.033333
8.477566 43.250668 43.926601 -11.953125 2.812500 -144.667496 24.794924 2.841797 -0.956547 -18.457031 -2.568359 -2.041453 -14.257813 -3.847656 -15.537766 17.578125 5.625000 -15.487324 -1.425781 2.539063 0.058161 -81.425781 -21.728516 48.023727 -62.558590 -2.343750 -12.899991 9.521484 -1.914063 -0.351563 10.693697 5.908386 -0.411114 66.445320 22.773438 -13.638799 87.382813 3.681641 -52.060551 -8.593750 -10.244392 1.121376 -10.135637 15.125225 2.824209 32.945938 -1.095222 -2.450157 -26.067440 18.670673 4.344597 -50.250546 -20.398754 -8.264329 58.582893 -0.556645 2.956355 -20.503969 -12.753846 0.202470 
8.640483 43.315094 44.052895 -12.148437 2.812500 -143.964371 25.146484 2.949219 -1.289063 -18.457031 -2.568359 -2.217234 -15.322264 -4.003906 -15.508494 17.763672 5.976563 -15.477497 -1.425781 2.539063 0.058161 -81.513672 -22.060547 48.345943 -62.158203 -2.343750 -12.353516 9.882813 -2.939453 -0.546875 10.517579 5.742188 -0.352540 66.396484 23.056643 -14.091798 87.841797 3.476563 -52.227150 -8.769532 -10.419922 1.103516 -11.051801 15.005642 1.874535 32.771698 -1.198135 -2.080754 -25.762638 18.864107 4.162481 -50.531681 -20.710022 -8.069398 58.398556 -0.390812 3.037044 -19.938957 -13.024285 -0.103563 
8.864280 43.438694 44.297638 -12.666015 2.978516 -142.733871 25.849611 3.076172 -1.610804 -18.818359 -2.744141 -2.744141 -17.050779 -4.052734 -15.869832 18.105469 6.152344 -15.829030 -1.064453 2.714844 0.039063 -81.679688 -22.880859 49.058708 -61.914059 -2.275391 -11.806252 10.244141 -4.316406 -0.742187 10.517579 5.390625 -0.293886 66.445313 23.134764 -14.677733 88.388672 3.671875 -52.383442 -8.583983 -10.410156 1.111518 -12.420607 14.802946 2.153724 32.767090 -1.100480 -2.257909 -24.810205 17.395380 3.236392 -50.765217 -21.266003 -7.654348 57.714825 -0.390642 3.026286 -19.061909 -13.548144 0.111034 
9.145036 43.600750 44.714359 -13.359374 2.978516 -141.151840 27.089846 3.242188 -2.108823 -19.345703 -3.095703 -3.271485 -19.306641 -3.925781 -16.240234 18.457033 6.152344 -16.161064 -1.064453 3.076172 0.039063 -81.650391 -23.945313 49.644474 -61.835938 -2.187500 -11.259463 10.800780 -5.664063 -1.113281 10.703126 5.566407 -0.342744 65.966797 23.193361 -15.888671 89.355469 3.652344 -52.549446 -8.925781 -10.058594 1.103516 -14.403757 14.843061 2.581856 33.112408 -1.198169 -2.127685 -23.847277 15.906625 2.084261 -51.396679 -22.109623 -5.981397 57.052990 -0.076375 2.628247 -17.019535 -14.203901 0.611296 
9.438164 43.744678 45.314945 -14.062500 2.978516 -139.218246 28.496094 3.808594 -2.655601 -20.214844 -3.427734 -3.994725 -21.757814 -4.316406 -16.552736 18.828125 6.308594 -16.502832 -1.064453 3.417969 0.058594 -81.982422 -24.863281 50.259563 -61.611332 -2.119140 -10.722657 11.914063 -7.177734 -1.347656 11.054688 5.566407 -0.372041 64.638672 23.564451 -17.529297 90.341797 3.623047 -52.920540 -9.062500 -9.375000 0.916380 -17.212202 14.868745 3.269567 34.180450 -1.198526 -2.348865 -22.486204 13.953194 1.006499 -52.505367 -22.849472 -3.630164 56.128708 -0.390512 3.101948 -14.142494 -14.905892 0.774846 
9.657184 43.757912 46.055668 -14.765624 3.164063 -137.802200 30.087893 4.658204 -2.919129 -20.927736 -3.613281 -4.687500 -24.394531 -5.000000 -16.475460 19.179689 6.142578 -16.668877 -1.064453 4.121094 0.058594 -82.714844 -26.640625 51.333511 -61.904301 -2.207031 -10.244142 13.730469 -7.949218 -1.817755 11.054688 5.390625 -0.342714 63.027348 24.599611 -19.136559 90.996094 3.632813 -53.643200 -8.701172 -8.681641 0.945792 -19.775854 14.463352 3.487368 36.818096 -1.107342 -2.488660 -22.582649 14.836512 1.400206 -54.091934 -23.379042 0.510470 55.593639 -0.525083 3.204612 -10.438639 -14.724689 1.961379 
9.722963 43.534237 46.859108 -15.136719 3.164063 -137.118607 31.171877 5.585938 -2.958034 -21.269527 -3.613281 -5.225225 -26.533205 -5.849610 -16.201174 19.697266 6.142578 -16.474609 -0.908203 5.351563 0.244141 -83.925781 -28.759768 53.042179 -62.421879 -2.119128 -10.253842 16.435545 -8.476562 -2.294922 11.044922 5.048829 -0.274297 61.181637 25.634764 -21.054686 92.031250 3.574219 -55.098267 -8.857422 -8.330079 0.926319 -22.200829 14.810081 2.586142 41.733727 -0.887910 -2.641059 -23.296227 18.262011 2.678651 -55.804295 -23.719015 5.322178 55.595734 -0.390698 2.720704 -7.031785 -12.407393 3.052502 
9.601940 43.032383 47.650551 -15.136719 3.164063 -137.294388 31.357422 6.308594 -2.899318 -21.621094 -3.251953 -5.410711 -27.275391 -6.318359 -15.596778 20.234375 5.966797 -16.112267 -0.908203 7.460938 0.272163 -85.439453 -30.546877 54.838787 -63.164059 -2.070313 -10.800427 19.296875 -8.261718 -2.753906 11.054688 4.667969 -0.381654 59.921879 26.113279 -23.472263 94.091797 3.623047 -56.533821 -9.208984 -7.792968 0.917969 -23.712444 15.404799 0.850998 47.693825 -0.628215 -3.010637 -23.508766 21.410784 4.586323 -57.434349 -23.914270 8.750175 55.907017 -0.722760 3.301427 -5.363326 -9.862184 3.747884 
9.315670 42.297295 48.422375 -14.609375 2.978516 -138.164063 30.683598 6.933594 -3.045696 -21.269529 -3.085938 -5.752479 -27.314451 -6.240234 -14.903404 20.761719 5.791016 -15.399405 -0.791014 10.273415 0.467010 -86.689453 -32.421875 56.684219 -64.638672 -2.099610 -11.435188 21.542969 -7.441407 -2.851563 11.220703 5.048828 -0.283203 59.794926 25.957031 -25.464479 97.587891 3.681641 -57.842419 -10.078124 -7.607422 0.848319 -23.475525 16.766819 -1.249900 53.681751 -0.249932 -3.547629 -22.194496 22.751596 4.534904 -58.722591 -23.718971 11.175205 56.827885 -0.564630 3.100418 -5.294883 -7.610802 4.135976 
8.884612 41.452328 49.176086 -13.720702 2.978516 -139.569809 29.287109 7.441407 -3.426469 -21.269529 -2.724609 -6.279761 -26.464844 -6.162109 -14.210032 21.103516 5.429688 -14.697265 -0.986328 12.910156 0.525162 -86.933594 -33.671875 57.460941 -66.093750 -2.265625 -12.011720 22.392576 -6.943359 -2.724609 11.220703 5.390625 -0.361328 60.683594 24.062500 -27.281174 102.695313 3.681641 -58.418594 -10.800781 -7.207030 0.996094 -20.912041 18.403852 -3.879832 57.516914 0.083203 -3.546182 -20.067488 21.897615 3.310565 -60.137268 -23.377499 12.804466 58.215656 -0.732212 3.234010 -5.833678 -6.673720 4.135193 
8.337067 40.654404 49.982826 -12.656249 2.636719 -140.976334 27.500002 7.617188 -4.481127 -21.269529 -2.382813 -7.158609 -24.765625 -5.869141 -13.183595 21.982422 4.716797 -13.602713 -1.191406 15.195313 0.602909 -87.207031 -34.755859 58.519825 -67.255859 -2.197266 -11.572263 21.210939 -7.626953 -2.843091 10.878907 5.908203 -0.420927 62.509769 20.664063 -28.727024 109.208984 3.662110 -58.291012 -11.816405 -6.484375 0.916868 -16.315147 19.625961 -5.676468 59.102570 0.443832 -3.774289 -17.850239 20.373384 1.910591 -61.051456 -22.860851 14.574204 59.102154 -0.916258 3.160461 -5.808864 -6.148818 4.378038 
7.666533 39.998692 50.908760 -11.425781 2.460938 -142.733948 25.175781 7.919922 -5.858030 -21.806641 -1.845703 -8.388672 -21.523438 -5.664063 -11.426745 22.675783 3.671875 -11.845078 -1.962891 17.294924 0.898438 -87.460938 -33.974606 59.154697 -68.691406 -2.148437 -10.341431 19.384766 -9.384767 -3.125000 10.166015 6.259766 -0.410156 64.326172 15.693358 -29.968060 116.386726 3.662110 -58.955708 -13.066407 -5.566407 1.025391 -10.310673 20.056292 -6.720545 58.220852 0.083205 -3.540960 -15.803670 18.728062 0.413132 -61.358971 -21.786459 16.674561 59.102154 -0.916258 3.160460 -4.870478 -6.151932 4.222767 
6.920054 39.473194 52.003365 -10.205078 2.636719 -145.370865 22.294922 8.398438 -7.772011 -22.675783 -0.976563 -9.980467 -17.275389 -5.322265 -8.604423 23.544922 2.070312 -9.364881 -2.500000 19.384768 0.973321 -88.164063 -31.953125 59.721390 -70.976563 -2.080078 -8.730115 17.578125 -11.142578 -3.400323 8.251954 6.416016 -0.411247 66.005859 10.146484 -29.861559 123.261719 3.750000 -59.541656 -14.267578 -4.658203 0.936709 -4.030196 19.913967 -6.572638 55.244106 -0.082315 -3.512570 -14.443295 17.338923 -0.398636 -61.927910 -20.400326 18.785730 57.864647 -0.740594 3.205761 -3.187350 -6.354853 4.396884 
6.192318 39.007595 53.280128 -9.511718 3.164063 -149.061951 18.857422 8.798827 -9.482421 -23.554686 0.087891 -11.728501 -11.982421 -5.224609 -4.893467 24.072268 -0.039063 -6.367194 -2.656250 21.855469 0.963161 -89.824219 -28.613281 60.664059 -74.374992 -1.894531 -7.372725 16.455078 -12.568359 -3.527514 5.273437 6.220703 -0.429688 66.582031 4.677734 -28.242188 129.082031 3.828125 -59.766281 -15.585937 -2.958984 0.497540 1.757924 18.827501 -5.190632 51.379314 -0.267736 -3.433410 -15.565139 17.095116 0.189526 -62.917545 -18.486464 20.407242 55.753727 -0.725550 3.477647 -0.959224 -5.815140 4.918960 
5.539302 38.526806 54.630127 -8.974609 3.681641 -154.345078 15.625000 9.101563 -10.896893 -24.443359 1.494141 -13.320057 -6.816406 -5.380859 -1.865234 24.218752 -3.554688 -1.787715 -2.910156 24.306641 1.142578 -91.396484 -24.072268 60.318283 -78.701172 -1.914063 -6.718424 14.726563 -13.945312 -3.281250 2.119140 6.035156 -0.429688 66.132813 -0.146484 -25.927759 133.925781 3.808593 -60.351566 -16.425779 -0.771484 0.107290 6.639210 16.956974 -3.245429 47.919151 -0.392078 -2.941954 -18.974812 17.738012 1.404454 -64.401749 -15.322479 21.566711 53.489388 -0.275916 3.450140 1.051019 -3.960381 5.265826 
4.998123 38.014408 55.920475 -8.281250 3.867187 -160.673828 12.929688 9.609375 -11.845704 -24.609375 2.539063 -14.364801 -2.363281 -5.644532 1.727555 23.681643 -7.060547 2.235128 -3.251953 26.250002 1.230469 -92.861328 -18.896484 59.010513 -83.232422 -1.884766 -6.474288 12.548829 -14.482422 -2.844239 -0.332031 6.054693 -0.352592 65.097649 -4.277344 -24.931641 138.320313 3.759766 -62.519527 -16.923828 0.683594 -0.429688 10.594561 14.060521 -0.680738 45.608192 -0.567776 -3.084453 -23.472050 18.735136 3.452314 -66.173882 -11.827938 21.338839 52.234718 -0.267783 3.031564 1.854998 -1.039842 5.220312 
